<?xml version="1.0" standalone="no"?>
<!DOCTYPE svg PUBLIC "-//W3C//DTD SVG 20010904//EN"
 "http://www.w3.org/TR/2001/REC-SVG-20010904/DTD/svg10.dtd">
<svg version="1.0" xmlns="http://www.w3.org/2000/svg"
 width="608.000000pt" height="639.000000pt" viewBox="0 0 808.000000 839.000000"
 preserveAspectRatio="xMidYMid meet">

<g transform="translate(0.000000,839.000000) scale(0.100000,-0.100000)"
fill="#ffffff" stroke="none">
<path d="M593 7910 c-74 -37 -145 -111 -181 -188 -22 -47 -26 -71 -26 -137 0
-67 5 -89 28 -134 34 -66 3353 -4463 3403 -4508 55 -50 133 -76 228 -76 104 0
177 28 245 91 27 26 468 586 979 1246 l931 1198 2 -2333 3 -2334 22 -47 c44
-97 141 -176 241 -197 73 -15 852 -15 924 0 97 21 196 101 240 194 l28 60 0
3470 0 3470 -24 50 c-29 63 -107 142 -172 175 l-49 25 -550 0 -550 0 -50 -24
c-27 -14 -68 -43 -90 -65 -33 -33 -893 -1190 -1950 -2623 -99 -134 -182 -240
-186 -235 -4 4 -323 426 -710 937 -1297 1716 -1441 1905 -1482 1940 -22 19
-65 44 -94 55 -51 19 -78 20 -577 20 l-523 0 -60 -30z"/>
<path d="M618 3031 c-128 -51 -210 -154 -229 -289 -6 -42 -9 -452 -7 -1023 l3
-954 24 -58 c29 -74 113 -159 190 -196 l56 -26 465 0 465 0 56 26 c77 37 161
122 190 196 l24 58 3 960 c2 585 -1 984 -7 1023 -18 118 -90 216 -199 269
l-57 28 -465 2 c-433 2 -468 1 -512 -16z"/>
</g>
</svg>
