<?xml version="1.0" encoding="UTF-8" standalone="no"?>
<!DOCTYPE svg PUBLIC "-//W3C//DTD SVG 1.1//EN" "http://www.w3.org/Graphics/SVG/1.1/DTD/svg11.dtd">
<svg xmlns="http://www.w3.org/2000/svg" version="1.1" viewBox="0.00 0.00 1920.00 533.00">
<g stroke-width="2.00" fill="none" stroke-linecap="butt">
<path stroke="#878787" vector-effect="non-scaling-stroke" d="
  M 259.37 153.15
  Q 226.01 198.04 192.83 242.92
  A 0.56 0.56 0.0 0 1 191.93 242.93
  Q 156.13 195.70 120.24 148.43
  C 117.25 144.50 114.51 142.07 109.75 142.06
  Q 95.13 142.01 80.50 141.89
  C 72.59 141.82 65.22 149.14 67.35 157.04
  Q 68.05 159.63 72.48 165.48
  Q 127.42 238.12 182.36 310.75
  C 184.54 313.63 186.87 315.61 190.24 315.99
  C 196.59 316.72 200.19 313.85 204.18 308.73
  Q 234.84 269.48 265.41 230.13
  A 0.29 0.29 0.0 0 1 265.93 230.31
  Q 266.02 307.50 265.94 384.75
  Q 265.93 392.91 272.47 396.25
  Q 274.94 397.51 279.26 397.51
  Q 291.18 397.49 303.10 397.49
  Q 307.29 397.49 309.65 396.23
  C 315.16 393.27 316.32 388.86 316.32 382.41
  Q 316.34 269.37 316.32 156.33
  Q 316.32 151.51 315.00 148.91
  C 311.62 142.24 306.27 141.98 298.61 142.02
  Q 288.11 142.08 277.57 142.02
  Q 271.71 141.99 268.99 143.09
  C 263.91 145.15 262.26 149.26 259.37 153.15"
/>
<path stroke="#878787" vector-effect="non-scaling-stroke" d="
  M 892.54 310.19
  Q 892.54 311.47 891.78 310.44
  Q 831.74 229.03 771.67 147.42
  C 768.64 143.29 765.91 142.08 761.00 142.06
  Q 746.37 141.99 731.75 142.10
  C 725.19 142.15 720.18 146.11 719.23 152.60
  Q 718.55 157.24 721.28 160.98
  Q 805.77 276.61 890.30 392.22
  Q 894.23 397.59 901.00 397.57
  Q 915.69 397.53 930.38 397.48
  Q 934.01 397.47 936.20 396.24
  Q 943.00 392.41 943.01 383.00
  Q 943.10 268.36 943.00 153.73
  Q 943.00 150.74 941.83 148.78
  C 938.33 142.97 933.91 142.00 926.88 142.04
  Q 918.23 142.10 909.54 142.00
  Q 903.04 141.92 900.07 143.13
  C 891.60 146.56 892.53 154.07 892.53 163.47
  Q 892.57 237.13 892.54 310.19"
/>
<path stroke="#878787" vector-effect="non-scaling-stroke" d="
  M 1130.29 214.08
  A 0.38 0.37 45.6 0 1 1130.98 214.09
  L 1187.15 348.22
  A 0.17 0.17 0.0 0 1 1186.99 348.46
  Q 1107.03 348.51 1027.00 348.72
  Q 1018.51 348.75 1015.08 356.78
  Q 1009.99 368.66 1004.88 380.59
  C 1002.11 387.05 1004.00 393.87 1010.43 396.91
  Q 1013.27 398.26 1018.79 398.26
  Q 1131.52 398.24 1244.25 398.41
  C 1254.20 398.43 1260.02 389.17 1256.09 379.93
  Q 1207.91 266.59 1159.73 153.25
  C 1156.73 146.20 1154.07 142.05 1146.25 142.05
  Q 1130.75 142.05 1115.25 142.01
  Q 1106.32 141.99 1103.01 149.75
  Q 1068.23 231.25 1033.42 312.74
  Q 1030.32 319.99 1034.21 325.76
  Q 1037.68 330.92 1042.57 330.95
  Q 1057.66 331.06 1072.74 331.00
  Q 1081.34 330.97 1084.24 324.03
  Q 1107.27 268.92 1130.29 214.08"
/>
<path stroke="#878787" vector-effect="non-scaling-stroke" d="
  M 1512.69 154.28
  A 12.24 12.24 0.0 0 0 1500.45 142.04
  L 1330.19 142.04
  A 12.24 12.24 0.0 0 0 1317.95 154.28
  L 1317.95 179.52
  A 12.24 12.24 0.0 0 0 1330.19 191.76
  L 1500.45 191.76
  A 12.24 12.24 0.0 0 0 1512.69 179.52
  L 1512.69 154.28"
/>
<path stroke="#878787" vector-effect="non-scaling-stroke" d="
  M 1783.79 230.23
  Q 1784.04 307.04 1783.82 384.00
  C 1783.79 392.31 1788.57 397.52 1796.71 397.50
  Q 1808.51 397.48 1820.33 397.51
  Q 1824.96 397.53 1827.44 396.27
  C 1833.33 393.29 1834.26 388.60 1834.26 381.82
  Q 1834.27 269.24 1834.26 156.67
  Q 1834.26 151.67 1833.00 149.06
  C 1829.72 142.27 1824.25 141.98 1816.58 142.02
  Q 1803.92 142.10 1791.25 142.26
  Q 1785.26 142.34 1782.53 146.04
  Q 1746.52 194.61 1710.71 242.97
  A 0.52 0.52 0.0 0 1 1709.88 242.98
  Q 1673.45 195.03 1637.20 147.06
  Q 1633.30 141.91 1626.75 141.95
  Q 1612.39 142.06 1597.98 142.02
  C 1587.36 141.99 1581.22 153.33 1587.87 162.13
  Q 1642.68 234.57 1697.47 307.03
  C 1702.11 313.16 1704.18 316.86 1711.73 315.84
  Q 1717.14 315.11 1720.31 311.05
  Q 1751.88 270.61 1783.39 230.09
  A 0.22 0.22 0.0 0 1 1783.79 230.23"
/>
<path stroke="#878787" vector-effect="non-scaling-stroke" d="
  M 492.26 142.72
  C 467.03 146.53 442.13 159.61 424.39 178.14
  Q 396.90 206.88 390.48 246.29
  Q 385.57 276.40 391.70 303.28
  C 402.50 350.58 441.11 389.65 489.58 398.56
  Q 495.10 399.58 498.39 398.71
  C 506.95 396.43 507.15 389.48 507.13 381.02
  Q 507.12 373.61 507.09 366.20
  C 507.06 357.29 506.08 351.41 496.95 349.16
  Q 460.86 340.29 446.24 308.08
  C 434.77 282.81 436.00 247.31 451.45 223.83
  Q 466.44 201.05 493.34 193.26
  C 506.70 189.40 507.07 185.68 507.10 171.64
  C 507.11 164.86 508.07 154.56 506.04 149.23
  Q 502.95 141.10 492.26 142.72"
/>
<path stroke="#878787" vector-effect="non-scaling-stroke" d="
  M 589.07 381.03
  Q 593.18 379.05 596.80 376.14
  Q 651.89 331.77 646.65 259.75
  Q 642.26 199.42 595.37 164.35
  Q 574.03 148.39 545.95 143.14
  C 535.58 141.19 528.43 144.20 528.48 156.26
  Q 528.52 165.21 528.49 174.21
  C 528.46 183.75 529.49 190.09 539.27 192.53
  C 549.28 195.04 558.60 198.97 566.80 205.29
  C 593.34 225.72 601.48 259.49 594.77 291.50
  C 588.77 320.15 567.97 342.61 539.25 348.93
  Q 528.64 351.27 528.58 362.25
  Q 528.52 373.30 528.50 384.42
  C 528.48 390.95 529.77 396.06 535.98 398.36
  Q 539.77 399.76 547.06 398.36
  Q 569.43 394.07 588.69 381.62
  Q 588.79 381.55 588.83 381.45
  Q 588.85 381.39 588.86 381.34
  Q 588.91 381.11 589.07 381.03"
/>
<path stroke="#878787" vector-effect="non-scaling-stroke" d="
  M 1497.4921 257.4167
  A 12.26 12.26 0.0 0 0 1485.2535 245.1353
  L 1330.2338 244.8648
  A 12.26 12.26 0.0 0 0 1317.9524 257.1033
  L 1317.9079 282.6033
  A 12.26 12.26 0.0 0 0 1330.1465 294.8847
  L 1485.1662 295.1552
  A 12.26 12.26 0.0 0 0 1497.4476 282.9167
  L 1497.4921 257.4167"
/>
<path stroke="#878787" vector-effect="non-scaling-stroke" d="
  M 117.48 321.78
  A 12.28 12.28 0.0 0 0 105.20 309.50
  L 79.22 309.50
  A 12.28 12.28 0.0 0 0 66.94 321.78
  L 66.94 385.22
  A 12.28 12.28 0.0 0 0 79.22 397.50
  L 105.20 397.50
  A 12.28 12.28 0.0 0 0 117.48 385.22
  L 117.48 321.78"
/>
<path stroke="#878787" vector-effect="non-scaling-stroke" d="
  M 769.66 321.68
  A 12.17 12.17 0.0 0 0 757.49 309.51
  L 731.41 309.51
  A 12.17 12.17 0.0 0 0 719.24 321.68
  L 719.24 385.34
  A 12.17 12.17 0.0 0 0 731.41 397.51
  L 757.49 397.51
  A 12.17 12.17 0.0 0 0 769.66 385.34
  L 769.66 321.68"
/>
<path stroke="#878787" vector-effect="non-scaling-stroke" d="
  M 1635.4355 321.7141
  A 12.17 12.17 0.0 0 0 1623.2868 309.5229
  L 1597.1068 309.4772
  A 12.17 12.17 0.0 0 0 1584.9156 321.6260
  L 1584.8045 385.2859
  A 12.17 12.17 0.0 0 0 1596.9532 397.4771
  L 1623.1332 397.5228
  A 12.17 12.17 0.0 0 0 1635.3244 385.3740
  L 1635.4355 321.7141"
/>
<path stroke="#878787" vector-effect="non-scaling-stroke" d="
  M 1512.7119 360.8999
  A 12.22 12.22 0.0 0 0 1500.5133 348.6586
  L 1330.2336 348.3614
  A 12.22 12.22 0.0 0 0 1317.9922 360.5601
  L 1317.9481 385.8801
  A 12.22 12.22 0.0 0 0 1330.1467 398.1214
  L 1500.4264 398.4186
  A 12.22 12.22 0.0 0 0 1512.6678 386.2199
  L 1512.7119 360.8999"
/>
</g>
<path fill="#11111" d="
  M 259.37 153.15
  C 262.26 149.26 263.91 145.15 268.99 143.09
  Q 271.71 141.99 277.57 142.02
  Q 288.11 142.08 298.61 142.02
  C 306.27 141.98 311.62 142.24 315.00 148.91
  Q 316.32 151.51 316.32 156.33
  Q 316.34 269.37 316.32 382.41
  C 316.32 388.86 315.16 393.27 309.65 396.23
  Q 307.29 397.49 303.10 397.49
  Q 291.18 397.49 279.26 397.51
  Q 274.94 397.51 272.47 396.25
  Q 265.93 392.91 265.94 384.75
  Q 266.02 307.50 265.93 230.31
  A 0.29 0.29 0.0 0 0 265.41 230.13
  Q 234.84 269.48 204.18 308.73
  C 200.19 313.85 196.59 316.72 190.24 315.99
  C 186.87 315.61 184.54 313.63 182.36 310.75
  Q 127.42 238.12 72.48 165.48
  Q 68.05 159.63 67.35 157.04
  C 65.22 149.14 72.59 141.82 80.50 141.89
  Q 95.13 142.01 109.75 142.06
  C 114.51 142.07 117.25 144.50 120.24 148.43
  Q 156.13 195.70 191.93 242.93
  A 0.56 0.56 0.0 0 0 192.83 242.92
  Q 226.01 198.04 259.37 153.15
  Z"
/>
<path fill="#11111" d="
  M 892.54 310.19
  Q 892.57 237.13 892.53 163.47
  C 892.53 154.07 891.60 146.56 900.07 143.13
  Q 903.04 141.92 909.54 142.00
  Q 918.23 142.10 926.88 142.04
  C 933.91 142.00 938.33 142.97 941.83 148.78
  Q 943.00 150.74 943.00 153.73
  Q 943.10 268.36 943.01 383.00
  Q 943.00 392.41 936.20 396.24
  Q 934.01 397.47 930.38 397.48
  Q 915.69 397.53 901.00 397.57
  Q 894.23 397.59 890.30 392.22
  Q 805.77 276.61 721.28 160.98
  Q 718.55 157.24 719.23 152.60
  C 720.18 146.11 725.19 142.15 731.75 142.10
  Q 746.37 141.99 761.00 142.06
  C 765.91 142.08 768.64 143.29 771.67 147.42
  Q 831.74 229.03 891.78 310.44
  Q 892.54 311.47 892.54 310.19
  Z"
/>
<path fill="#11111" d="
  M 1130.29 214.08
  Q 1107.27 268.92 1084.24 324.03
  Q 1081.34 330.97 1072.74 331.00
  Q 1057.66 331.06 1042.57 330.95
  Q 1037.68 330.92 1034.21 325.76
  Q 1030.32 319.99 1033.42 312.74
  Q 1068.23 231.25 1103.01 149.75
  Q 1106.32 141.99 1115.25 142.01
  Q 1130.75 142.05 1146.25 142.05
  C 1154.07 142.05 1156.73 146.20 1159.73 153.25
  Q 1207.91 266.59 1256.09 379.93
  C 1260.02 389.17 1254.20 398.43 1244.25 398.41
  Q 1131.52 398.24 1018.79 398.26
  Q 1013.27 398.26 1010.43 396.91
  C 1004.00 393.87 1002.11 387.05 1004.88 380.59
  Q 1009.99 368.66 1015.08 356.78
  Q 1018.51 348.75 1027.00 348.72
  Q 1107.03 348.51 1186.99 348.46
  A 0.17 0.17 0.0 0 0 1187.15 348.22
  L 1130.98 214.09
  A 0.38 0.37 45.6 0 0 1130.29 214.08
  Z"
/>
<rect fill="#11111" x="1317.95" y="142.04" width="194.74" height="49.72" rx="12.24"/>
<path fill="#11111" d="
  M 1783.79 230.23
  A 0.22 0.22 0.0 0 0 1783.39 230.09
  Q 1751.88 270.61 1720.31 311.05
  Q 1717.14 315.11 1711.73 315.84
  C 1704.18 316.86 1702.11 313.16 1697.47 307.03
  Q 1642.68 234.57 1587.87 162.13
  C 1581.22 153.33 1587.36 141.99 1597.98 142.02
  Q 1612.39 142.06 1626.75 141.95
  Q 1633.30 141.91 1637.20 147.06
  Q 1673.45 195.03 1709.88 242.98
  A 0.52 0.52 0.0 0 0 1710.71 242.97
  Q 1746.52 194.61 1782.53 146.04
  Q 1785.26 142.34 1791.25 142.26
  Q 1803.92 142.10 1816.58 142.02
  C 1824.25 141.98 1829.72 142.27 1833.00 149.06
  Q 1834.26 151.67 1834.26 156.67
  Q 1834.27 269.24 1834.26 381.82
  C 1834.26 388.60 1833.33 393.29 1827.44 396.27
  Q 1824.96 397.53 1820.33 397.51
  Q 1808.51 397.48 1796.71 397.50
  C 1788.57 397.52 1783.79 392.31 1783.82 384.00
  Q 1784.04 307.04 1783.79 230.23
  Z"
/>
<path fill="#11111" d="
  M 424.39 178.14
  C 442.13 159.61 467.03 146.53 492.26 142.72
  Q 502.95 141.10 506.04 149.23
  C 508.07 154.56 507.11 164.86 507.10 171.64
  C 507.07 185.68 506.70 189.40 493.34 193.26
  Q 466.44 201.05 451.45 223.83
  C 436.00 247.31 434.77 282.81 446.24 308.08
  Q 460.86 340.29 496.95 349.16
  C 506.08 351.41 507.06 357.29 507.09 366.20
  Q 507.12 373.61 507.13 381.02
  C 507.15 389.48 506.95 396.43 498.39 398.71
  Q 495.10 399.58 489.58 398.56
  C 441.11 389.65 402.50 350.58 391.70 303.28
  Q 385.57 276.40 390.48 246.29
  Q 396.90 206.88 424.39 178.14
  Z"
/>
<path fill="#11111" d="
  M 588.86 381.34
  Q 588.85 381.39 588.83 381.45
  Q 588.79 381.55 588.69 381.62
  Q 569.43 394.07 547.06 398.36
  Q 539.77 399.76 535.98 398.36
  C 529.77 396.06 528.48 390.95 528.50 384.42
  Q 528.52 373.30 528.58 362.25
  Q 528.64 351.27 539.25 348.93
  C 567.97 342.61 588.77 320.15 594.77 291.50
  C 601.48 259.49 593.34 225.72 566.80 205.29
  C 558.60 198.97 549.28 195.04 539.27 192.53
  C 529.49 190.09 528.46 183.75 528.49 174.21
  Q 528.52 165.21 528.48 156.26
  C 528.43 144.20 535.58 141.19 545.95 143.14
  Q 574.03 148.39 595.37 164.35
  Q 642.26 199.42 646.65 259.75
  Q 651.89 331.77 596.80 376.14
  Q 593.18 379.05 589.07 381.03
  Q 588.91 381.11 588.86 381.34
  Z"
/>
<rect fill="#11111" x="-89.77" y="-25.01" transform="translate(1407.70,270.01) rotate(0.1)" width="179.54" height="50.02" rx="12.26"/>
<rect fill="#11111" x="66.94" y="309.50" width="50.54" height="88.00" rx="12.28"/>
<rect fill="#11111" x="719.24" y="309.51" width="50.42" height="88.00" rx="12.17"/>
<rect fill="#11111" x="-25.26" y="-44.00" transform="translate(1610.12,353.50) rotate(0.1)" width="50.52" height="88.00" rx="12.17"/>
<rect fill="#11111" x="-97.36" y="-24.88" transform="translate(1415.33,373.39) rotate(0.1)" width="194.72" height="49.76" rx="12.22"/>
</svg>
